# xmcd
#
# Track frame offsets: 
#        150
#        19855
#        39452
#        62442
#        86757
#        107130
#        129627
#        148210
#        168825
#        188665
#        212355
#        230715
#
# Disc length: 3453 seconds
#
# Revision: 18
# Processed by: cddbd v1.5.2PL0 Copyright (c) Steve Scherf et al.
# Submitted via: ExactAudioCopyFreeDBPlugin 1.0
#
DISCID=a20d7b0c
DTITLE=ZARD - TODAY IS ANOTHER DAY
DYEAR=1996
DGENRE=Pop
TTITLE0=マイ フレンド
TTITLE1=君がいたから
TTITLE2=サヨナラは今もこの胸に居ます
TTITLE3=LOVE 〜眠れずに君の横顔ずっと見ていた〜
TTITLE4=DAN DAN 心魅かれてく
TTITLE5=眠り
TTITLE6=心を開いて
TTITLE7=突然
TTITLE8=今日も
TTITLE9=Today is another day
TTITLE10=愛が見えない
TTITLE11=見つめていたいね
EXTD=YEAR: 1996
EXTT0=
EXTT1=
EXTT2=
EXTT3=
EXTT4=
EXTT5=
EXTT6=
EXTT7=
EXTT8=
EXTT9=
EXTT10=
EXTT11=
PLAYORDER=
